<?xml version="1.0" encoding="utf-8"?>
<!-- Generator: Adobe Illustrator 24.1.2, SVG Export Plug-In . SVG Version: 6.00 Build 0)  -->
<svg version="1.1" id="Layer_1" xmlns="http://www.w3.org/2000/svg" xmlns:xlink="http://www.w3.org/1999/xlink" x="0px" y="0px"
	 viewBox="0 0 612 544" style="enable-background:new 0 0 612 544;" xml:space="preserve">
<style type="text/css">
	.st0{fill:#FADC2D;}
	.st1{fill:#0F2960;}
	.st2{fill:#F9DB2B;}
	.st3{fill:#022062;}
	.st4{fill:#092561;}
	.st5{fill:#082461;}
	.st6{fill:#0A2661;}
	.st7{fill:#0E2860;}
	.st8{fill:#0C2760;}
	.st9{fill:#112B5F;}
	.st10{fill:#152E5E;}
	.st11{fill:#FCDD2B;}
</style>
<path class="st0" d="M297.5,545c-19.2-7-38.3-13.4-56.8-21.2c-39.3-16.6-76.9-36.4-110.7-62.7c-20.4-15.9-37.8-34.4-49.9-57.6
	c-8.9-17.2-15.3-35.2-18-54.4c-1.4-9.8-2-19.8-2-29.8C59.9,226.7,60,134,60,41.4c0-1.8,0-3.6,0-6.1C224-3.6,387.7-3.6,551.9,35.4
	c0,2,0,3.7,0,5.3c0,92.2,0.1,184.3,0,276.5c-0.1,35.9-9.2,69.3-28.6,99.6c-11.2,17.4-25.8,31.5-42.1,44.1
	c-41.3,31.8-87.6,54.2-135.8,73c-9.9,3.9-20,7-30.2,10.8C309.3,545,303.6,545,297.5,545 M323.8,528.2c4.7-1.7,9.4-3.3,14.1-5
	c46.3-17.5,90.5-38.8,130.6-68.3c13.6-10,26.4-20.9,36.6-34.5c23.2-30.8,34-65.7,34.1-103.9c0.1-88.3-0.1-176.6-0.1-265
	c0-2.1,0-4.2,0-6.1c-2.8-0.6-4.8-1.1-6.7-1.5c-66.7-15.1-134.2-23.1-202.5-24.7c-64-1.5-127.6,2.8-190.7,13
	c-18.4,3-36.7,6.5-54.9,10.8C70.9,46.2,71.1,47,71.1,60.8c0,79.2-0.2,158.3,0.1,237.5c0.1,14.8,1.1,29.6,2.9,44.3
	c3.1,25.3,11.6,48.8,26.2,69.9c18.8,27.2,45,46.1,72.7,62.9c33.6,20.4,69.1,36.7,106,50.1C293.5,530.6,307.8,535.8,323.8,528.2z"/>
<path class="st1" d="M323.4,528.3c-15.6,7.5-29.9,2.3-44.3-2.9c-36.9-13.4-72.4-29.7-106-50.1c-27.8-16.9-53.9-35.7-72.7-62.9
	c-14.6-21.1-23.1-44.6-26.2-69.9c-1.8-14.7-2.9-29.5-2.9-44.3c-0.3-79.2-0.1-158.3-0.1-237.5c0-13.8-0.2-14.5,13.1-17.7
	c18.1-4.3,36.5-7.9,54.9-10.8c63.2-10.2,126.7-14.5,190.7-13c68.3,1.6,135.8,9.6,202.5,24.7c1.9,0.4,3.9,0.9,6.7,1.5
	c0,1.9,0,4,0,6.1c0.1,88.3,0.2,176.6,0.1,265c0,38.3-10.9,73.1-34.1,103.9c-10.2,13.6-23,24.4-36.6,34.5
	c-40,29.5-84.3,50.8-130.6,68.3C333.2,524.9,328.5,526.5,323.4,528.3 M532.5,303.5c0.1-74.1,0.2-148.3,0.2-222.4
	c0-8.5-1-16.9-1.3-25.4c-0.1-3.8-2.2-5.1-5.3-5.7c-12.1-2.5-24.1-5.3-36.2-7.5C439,33.1,387.7,27.8,336,26.3
	c-84.6-2.4-168.3,5.3-251.1,23.2c-4.7,1-5.9,2.7-5.9,7.4c0.1,83.5,0,167,0.1,250.4c0,11.5,0.6,23,2.1,34.4
	c3.2,25,12.1,47.9,26.7,68.6c14.4,20.4,33.4,35.7,53.9,49.2c41.6,27.3,86.2,48.2,133.5,63.7c7.1,2.3,14.1,2.7,21,0
	c18-6.9,36.2-13.3,53.9-21c37.4-16.3,73-35.7,104.7-61.7c24.5-20.1,41.6-45.1,50.3-75.8C530.7,345,532.4,324.9,532.5,303.5z"/>
<path class="st2" d="M532.5,304c-0.1,20.9-1.8,41-7.4,60.8c-8.7,30.7-25.8,55.7-50.3,75.8c-31.7,26-67.3,45.5-104.7,61.7
	c-17.7,7.7-35.9,14.2-53.9,21c-6.9,2.6-13.9,2.3-21,0c-47.2-15.5-91.9-36.4-133.5-63.7c-20.5-13.5-39.6-28.8-53.9-49.2
	c-14.6-20.7-23.4-43.6-26.7-68.6c-1.5-11.4-2.1-22.9-2.1-34.4c-0.1-83.5,0-167-0.1-250.4c0-4.7,1.2-6.4,5.9-7.4
	c82.8-18,166.5-25.6,251.1-23.2c51.7,1.5,103,6.7,153.9,16.1c12.1,2.2,24.1,5,36.2,7.5c3.2,0.7,5.2,1.9,5.3,5.7
	c0.2,8.5,1.3,16.9,1.3,25.4C532.7,155.2,532.6,229.4,532.5,304 M114.9,160.7c-0.1,0.1-0.1,0.2-0.2,0.3c0.1,0,0.2-0.1,0,0.5
	c14.8,22,33.1,40.8,53.2,58c6.9,5.9,14.1,11.4,21.9,17.6c0-6-0.1-10.7,0-15.5c0.1-6.4-1.8-11.9-6.9-15.8
	c-13.2-10.1-26.2-20.6-39.9-29.9C134.3,170.1,124.4,166,114.9,160.7 M294.5,217.5c0,41.6,0,83.2,0,125.5c4.5,0,8.5-0.4,12.4,0.1
	c5.2,0.7,6.6-1.3,6.3-6.3c-0.4-8.8-0.1-17.5-0.1-26.4c35.4,0,70.1,0,105.2,0c0,26.7,0,52.9-0.1,79c0,1.7-1.3,3.7-2.6,5
	c-16.2,15.9-32.4,31.7-48.8,47.3c-1.5,1.4-4.1,2.2-6.2,2.2c-13,0.2-26,0.1-39,0.1c-3.9,0-7.9,0-12.8,0c0,15.6,0,30.6,0,45.6
	c-2-0.9-2.8-1.9-3.5-3c-8.3-12.9-16.5-25.8-24.9-38.7c-1-1.5-2.3-3.7-3.6-3.8c-6.3-0.4-12.7-0.2-19.4-0.2c0.5,1.4,0.5,1.9,0.8,2.3
	c15.4,21.4,30.7,42.7,46.3,64c0.8,1,3.5,1.4,5,1c50.4-16.9,98.4-38.9,142.1-69.5c17.6-12.3,33.2-26.8,44.8-45.1
	c16.1-25.6,22.4-54,22.5-83.8c0.3-81.8,0.1-163.6,0.1-245.4c0-1.6,0-3.3,0-5C449.8,46.8,380.3,39.9,309.6,40
	c-0.5,5.8-0.9,11-1.5,17.4c-3.8-4.4-6.9-7.9-9.8-11.4c-2.6-3.1-4.5-6.9-9.9-6.1c-3.9,0.6-8,0.1-13.2,0.1c1.6,2.1,2,2.7,2.6,3.3
	c10.8,12.8,21.6,25.8,32.6,38.4c1.5,1.7,4.5,2.8,6.8,2.9c14.5,0.3,29,0.1,43.5,0.4c2.5,0.1,5.5,1.3,7.3,3
	c15.9,15.2,31.6,30.6,47.1,46.2c1.7,1.7,3,4.8,3,7.2c0.2,24.2,0.1,48.3,0,72.5c0,1.5-0.1,2.9-0.2,4.8c-2.2,0.1-4.2,0.3-6.1,0.3
	c-30.8,0.1-61.6,0-92.5,0.3c-5.1,0.1-6.6-1.3-6.3-6.4c0.4-8.9,0.1-17.9,0.1-27c-6.6,0-12.3,0-18.6,0
	C294.5,196.3,294.5,206.4,294.5,217.5 M199.3,225.5c0,51.8-0.1,103.7-0.2,155.5c0,4.1,1,7.1,4,10.1c13.8,13.3,27.3,26.9,41,40.2
	c1.6,1.5,4.3,2.6,6.5,2.6c35.5,0.2,71,0.2,106.5,0.1c2.3,0,5.2-1.2,6.9-2.8c13.4-12.7,26.7-25.6,39.8-38.6c1.5-1.4,2.7-3.9,2.7-5.9
	c0.3-21.3,0.3-42.7,0.4-64c0-0.9-0.2-1.9-0.3-2.7c-28.1,0-55.7,0-84.1,0c0,11,0,21.6,0,31.9c-12.9,0-25.1,0-37.3,0
	c0-58.9,0-117.3,0-175.9c12.6,0,24.7,0,37.7,0c0,11.1,0,22,0,33c28.4,0,56,0,83.6,0c0.2-0.8,0.4-1.3,0.4-1.7c0-20.3,0.2-40.7-0.4-61
	c-0.1-4.2-2.5-9.2-5.4-12.3c-10.3-10.9-21.5-20.9-31.8-31.8c-5.6-5.9-11.4-8.1-19.6-8c-30.5,0.5-61,0.2-91.5,0.2
	c-8.4,0-15.4,2.9-21.4,9.2c-11.2,11.7-22.8,22.9-34,34.5c-1.9,2-3.4,5.4-3.4,8.2C199.2,172.5,199.3,198.5,199.3,225.5 M244,485.5
	c-38.5-53.4-87.9-94.2-146.2-126.1c3.7,12.8,8.3,20.8,16.2,27c21.3,16.7,40.6,35.4,58.8,55.5c5,5.6,10,11.1,15.5,16.2
	c11.1,10.2,24.5,16.5,38,22.7c6.3,2.9,12.7,5.6,20.2,8.9C245.3,487.7,244.9,486.9,244,485.5 M109,79.5c-5-3.8-10.1-7.7-15-11.4
	c-3.9,12.3,0.6,20.7,10.4,26.8c0.4,0.3,0.7,0.7,1.1,1c26.3,24.8,52.5,49.6,78.8,74.4c1.4,1.4,3.2,2.4,5.5,4.3
	c0-11.1,0.1-20.9-0.1-30.7c0-1.5-1.3-3.3-2.6-4.3C161.3,119.7,135.4,99.8,109,79.5 M152.1,359.4c12.6,9,25.3,18,38.8,27.6
	c-0.4-10.1-4.5-16.8-10.6-22.3c-23.6-21.3-47.3-42.4-70.9-63.5c-5.1-4.6-10.3-9.1-16.3-14.4c0,8.7-0.1,16,0.1,23.2
	c0,1.2,1.1,2.7,2.2,3.6C114,328.8,132.8,343.8,152.1,359.4 M157.9,274.6c10.4,6.9,20.8,13.8,31.9,21.2c0-4.9-0.4-8.6,0.1-12.2
	c1-6.7-1.9-9.8-7.9-12.6c-26.7-12.5-53-25.7-79.5-38.6c-1.8-0.9-3.9-1.1-5.8-1.7c-0.3,0.6-0.5,1.2-0.8,1.8
	C116.3,246.4,136.8,260.3,157.9,274.6 M171.5,76c-6.2-7.6-12.4-15.3-18.7-22.8c-0.8-0.9-2.1-2.2-3-2.1c-8.8,1.1-17.5,2.4-26.3,3.7
	c-0.1,0.4-0.2,0.8-0.3,1.3c24.2,17.7,48.4,35.4,72.6,53.1c0.5-0.5,0.9-1,1.4-1.5C188.8,97.2,180.4,86.9,171.5,76 M188.4,57.8
	c-0.2,0.9-0.8,2-0.4,2.5c5.8,8.5,11.9,16.8,17.7,25.3c4.7,6.8,9.2,13.7,14,20.9c4.6-3.7,8.7-6.9,13.2-10.5
	c-10.3-9.2-19.8-17.9-29.5-26.5C198.8,65.5,193.9,61.8,188.4,57.8 M284.8,82.7c2.2,1.2,4.4,2.5,6.6,3.7c-0.1-1.7-0.5-2.8-1.3-3.5
	c-11.5-12.2-23.3-24.1-34.5-36.7c-5.8-6.5-12.3-4-18.7-4.2c-0.3,0.5-0.5,1-0.8,1.5C252.2,56.4,268.2,69.3,284.8,82.7 M106.5,134.9
	c9.3,4.4,18.7,8.8,28,13.2c0.4-0.5,0.8-1,1.2-1.5c-13.9-13.2-27.8-26.4-42.7-40.5c0,3.9,0.4,6.2-0.1,8.4
	C90.7,125.5,95.1,132,106.5,134.9 M161.9,314.6c9,11.9,18.1,23.9,27.9,36.9c0.3-9.8-0.4-17.8-7.5-23.8c-6.7-5.6-13.4-11.4-20.1-17
	c-1-0.9-2.5-1.2-3.7-1.8c-0.2,0.2-0.4,0.5-0.5,0.7C159.1,311.1,160.3,312.5,161.9,314.6z"/>
<path class="st3" d="M294.5,217c0-10.6,0-20.7,0-31.1c6.3,0,12.1,0,18.6,0c0,9.1,0.3,18.1-0.1,27c-0.2,5.1,1.2,6.5,6.3,6.4
	c30.8-0.3,61.6-0.3,92.5-0.3c2,0,3.9-0.2,6.1-0.3c0.1-1.9,0.2-3.3,0.2-4.8c0-24.2,0.2-48.3,0-72.5c0-2.5-1.3-5.5-3-7.2
	c-15.5-15.6-31.3-30.9-47.1-46.2c-1.8-1.7-4.8-3-7.3-3c-14.5-0.3-29-0.1-43.5-0.4c-2.3,0-5.3-1.2-6.8-2.9
	c-11-12.7-21.8-25.6-32.6-38.4c-0.5-0.6-1-1.3-2.6-3.3c5.2,0,9.3,0.5,13.2-0.1c5.4-0.8,7.2,3,9.9,6.1c3,3.5,6,7,9.8,11.4
	c0.5-6.4,1-11.6,1.5-17.4c70.6-0.1,140.1,6.9,209.3,22.3c0,1.7,0,3.4,0,5c0,81.8,0.2,163.6-0.1,245.4c-0.1,29.8-6.4,58.2-22.5,83.8
	c-11.6,18.4-27.2,32.8-44.8,45.1c-43.7,30.7-91.7,52.6-142.1,69.5c-1.4,0.5-4.2,0.1-5-1c-15.6-21.2-30.9-42.6-46.3-64
	c-0.3-0.4-0.3-0.9-0.8-2.3c6.7,0,13.1-0.2,19.4,0.2c1.3,0.1,2.6,2.3,3.6,3.8c8.3,12.9,16.6,25.8,24.9,38.7c0.7,1.1,1.5,2.1,3.5,3
	c0-15,0-30,0-45.6c4.9,0,8.9,0,12.8,0c13,0,26,0.1,39-0.1c2.1,0,4.7-0.8,6.2-2.2c16.4-15.7,32.6-31.5,48.8-47.3
	c1.3-1.3,2.6-3.3,2.6-5c0.2-26.1,0.1-52.3,0.1-79c-35.1,0-69.8,0-105.2,0c0,8.9-0.3,17.7,0.1,26.4c0.2,5-1.1,7-6.3,6.3
	c-3.9-0.5-7.9-0.1-12.4-0.1C294.5,300.7,294.5,259.1,294.5,217z"/>
<path class="st4" d="M199.3,225c0-26.5-0.1-52.5,0.2-78.5c0-2.8,1.5-6.1,3.4-8.2c11.2-11.7,22.8-22.9,34-34.5c6-6.2,13-9.1,21.4-9.2
	c30.5-0.1,61,0.3,91.5-0.2c8.2-0.1,14,2.1,19.6,8c10.3,10.9,21.5,20.9,31.8,31.8c2.9,3.1,5.3,8.1,5.4,12.3c0.6,20.3,0.3,40.7,0.4,61
	c0,0.5-0.2,1-0.4,1.7c-27.6,0-55.2,0-83.6,0c0-11,0-21.9,0-33c-12.9,0-25,0-37.7,0c0,58.6,0,117,0,175.9c12.1,0,24.3,0,37.3,0
	c0-10.4,0-20.9,0-31.9c28.4,0,56.1,0,84.1,0c0.1,0.8,0.3,1.7,0.3,2.7c-0.1,21.3-0.1,42.7-0.4,64c0,2-1.2,4.5-2.7,5.9
	c-13.2,13-26.4,25.9-39.8,38.6c-1.7,1.6-4.6,2.8-6.9,2.8c-35.5,0.1-71,0.1-106.5-0.1c-2.2,0-4.9-1.1-6.5-2.6
	c-13.8-13.3-27.3-26.9-41-40.2c-3.1-3-4-6-4-10.1C199.3,329.2,199.3,277.3,199.3,225 M312.5,108.5c-16.7,0.1-33.3,0.1-50,0.1
	c-5.4,0-10.1,1.4-14.1,5.3c-10.4,10.1-20.9,20-31.2,30.3c-1.3,1.3-2,3.8-2.1,5.7c-0.2,8,0,16,0,24c0,67.8-0.1,135.6,0.1,203.4
	c0,2.8,1.4,6.2,3.3,8.2c10.7,11,21.7,21.7,32.7,32.3c1.5,1.4,4,2.4,6.1,2.4c31,0.2,62,0.2,93,0.1c2.3,0,5.2-1.2,6.9-2.8
	c11.1-10.6,22-21.3,32.8-32.2c1.7-1.8,3-4.8,3-7.4c0.3-13.2,0.1-26.3,0-39.5c0-1.4-0.2-2.9-0.3-4.4c-18.5,0-36.6,0-55.3,0
	c0,10.8,0,21.4,0,32.3c-22.5,0-44.4,0-66.4,0c0-68.2,0-136,0-204c22.3,0,44.2,0,66.5,0c0,11,0,21.5,0,32c18.7,0,36.9,0,55.6,0
	c0-14.9,0.1-29.4-0.1-43.9c0-2.5-1.3-5.5-3-7.3c-10.9-11-22.1-21.7-33.4-32.3c-1.6-1.5-4.3-2.5-6.5-2.6
	C337.8,108.2,325.7,108.4,312.5,108.5z"/>
<path class="st5" d="M244.2,485.8c0.7,1.1,1.1,1.9,2.3,3.9c-7.5-3.3-13.9-6-20.2-8.9c-13.5-6.2-26.9-12.5-38-22.7
	c-5.5-5.1-10.5-10.7-15.5-16.2c-18.1-20-37.5-38.7-58.8-55.5c-7.9-6.2-12.5-14.2-16.2-27C156.1,391.3,205.4,432.1,244.2,485.8z"/>
<path class="st5" d="M109.3,79.8c26.1,20.1,52,39.9,77.8,59.8c1.3,1,2.6,2.8,2.6,4.3c0.2,9.8,0.1,19.6,0.1,30.7
	c-2.4-1.8-4.1-2.9-5.5-4.3c-26.3-24.8-52.5-49.6-78.8-74.4c-0.4-0.3-0.7-0.8-1.1-1C94.6,88.8,90.1,80.5,94,68.1
	C98.9,71.9,103.9,75.7,109.3,79.8z"/>
<path class="st4" d="M151.8,359.2c-19-15.3-37.8-30.4-56.5-45.6c-1-0.8-2.2-2.3-2.2-3.6c-0.2-7.3-0.1-14.5-0.1-23.2
	c6.1,5.4,11.2,9.9,16.3,14.4c23.7,21.2,47.4,42.3,70.9,63.5c6.1,5.5,10.2,12.2,10.6,22.3C177.3,377.4,164.7,368.4,151.8,359.2z"/>
<path class="st6" d="M115,161c9.4,4.9,19.3,9.1,28,15c13.7,9.3,26.7,19.8,39.9,29.9c5.2,3.9,7.1,9.4,6.9,15.8c-0.1,4.7,0,9.5,0,15.5
	c-7.8-6.2-15-11.7-21.9-17.6c-20.1-17.1-38.3-36-53-58.3C115,161,115,161,115,161z"/>
<path class="st7" d="M157.6,274.4c-20.8-14.1-41.3-28-61.8-41.9c0.3-0.6,0.5-1.2,0.8-1.8c1.9,0.6,4,0.8,5.8,1.7
	c26.5,12.9,52.9,26,79.5,38.6c6,2.8,8.9,5.9,7.9,12.6c-0.5,3.6-0.1,7.3-0.1,12.2C178.7,288.4,168.3,281.5,157.6,274.4z"/>
<path class="st8" d="M171.7,76.3c8.6,10.6,17,21,25.4,31.3c-0.5,0.5-0.9,1-1.4,1.5c-24.2-17.7-48.4-35.4-72.6-53.1
	c0.1-0.4,0.2-0.8,0.3-1.3c8.8-1.3,17.5-2.6,26.3-3.7c0.9-0.1,2.3,1.1,3,2.1C159.1,60.7,165.3,68.4,171.7,76.3z"/>
<path class="st7" d="M188.8,57.9c5.1,3.9,10,7.6,14.6,11.6c9.7,8.5,19.3,17.3,29.5,26.5c-4.5,3.6-8.6,6.8-13.2,10.5
	c-4.8-7.2-9.3-14.1-14-20.9c-5.9-8.5-11.9-16.8-17.7-25.3C187.6,59.8,188.3,58.6,188.8,57.9z"/>
<path class="st9" d="M284.5,82.5c-16.3-13.1-32.3-26.1-48.3-39c0.3-0.5,0.5-1,0.8-1.5c6.4,0.3,12.9-2.3,18.7,4.2
	c11.1,12.5,23,24.5,34.5,36.7c0.7,0.8,1.2,1.8,1.3,3.5C289.3,85.1,287.1,83.9,284.5,82.5z"/>
<path class="st8" d="M106.2,134.8c-11.1-2.8-15.5-9.3-13.3-20.3c0.4-2.2,0.1-4.6,0.1-8.4c14.9,14.2,28.8,27.3,42.7,40.5
	c-0.4,0.5-0.8,1-1.2,1.5C125.2,143.7,115.9,139.3,106.2,134.8z"/>
<path class="st10" d="M161.7,314.3c-1.4-1.8-2.6-3.2-3.7-4.7c0.2-0.2,0.4-0.5,0.5-0.7c1.3,0.6,2.7,0.9,3.7,1.8
	c6.7,5.6,13.4,11.4,20.1,17c7.1,6,7.8,13.9,7.5,23.8C180,338.5,171,326.6,161.7,314.3z"/>
<path class="st6" d="M115,161c-0.1,0-0.2,0.1-0.3,0.1c0.1-0.1,0.1-0.2,0.2-0.2C115,161,115,161,115,161z"/>
<path class="st11" d="M313,108.5c12.7-0.1,24.8-0.3,37-0.1c2.2,0,4.9,1.1,6.5,2.6c11.3,10.6,22.4,21.3,33.4,32.3
	c1.7,1.7,3,4.8,3,7.3c0.3,14.5,0.1,29,0.1,43.9c-18.7,0-36.9,0-55.6,0c0-10.5,0-21.1,0-32c-22.4,0-44.3,0-66.5,0
	c0,67.9,0,135.8,0,204c22.1,0,43.9,0,66.4,0c0-10.9,0-21.4,0-32.3c18.7,0,36.8,0,55.3,0c0.1,1.5,0.3,3,0.3,4.4
	c0.1,13.2,0.2,26.3,0,39.5c-0.1,2.5-1.3,5.6-3,7.4c-10.7,10.9-21.7,21.7-32.8,32.2c-1.7,1.6-4.6,2.8-6.9,2.8c-31,0.1-62,0.1-93-0.1
	c-2.1,0-4.6-1-6.1-2.4c-11.1-10.6-22-21.3-32.7-32.3c-1.9-2-3.3-5.4-3.3-8.2c-0.1-67.8-0.1-135.6-0.1-203.4c0-8-0.2-16,0-24
	c0-2,0.8-4.4,2.1-5.7c10.3-10.2,20.8-20.2,31.2-30.3c4-3.8,8.7-5.2,14.1-5.3C279.2,108.6,295.8,108.5,313,108.5z"/>
</svg>
